<svg xmlns="http://www.w3.org/2000/svg"><defs><clipPath id="clip0"><path fill="#fff" transform="translate(0 .84)" d="M0 0h24v20.636H0z"/></clipPath><clipPath id="clip1"><path fill="#fff" transform="translate(2 .84)" d="M0 0h20v20H0z"/></clipPath></defs><symbol id="icon-facebook"><path d="M10.406.564L7.812.561c-2.914 0-4.797 1.66-4.797 4.232v1.951H.408c-.226 0-.408.157-.408.351v2.827c0 .194.183.35.408.35h2.607v7.135c0 .194.183.35.408.35h3.403c.225 0 .407-.157.407-.35v-7.134h3.05c.225 0 .407-.157.407-.35l.001-2.828a.328.328 0 0 0-.119-.248.444.444 0 0 0-.289-.103h-3.05V5.09c0-.795.22-1.199 1.425-1.199h1.747c.225 0 .408-.157.408-.35V.914c0-.193-.182-.35-.407-.35z"/></symbol><symbol id="icon-instagram"><g clip-path="url(#clip0)"><g clip-path="url(#clip1)"><path d="M15.75.84h-7.5A6.25 6.25 0 0 0 2 7.09v7.5a6.25 6.25 0 0 0 6.25 6.25h7.5A6.25 6.25 0 0 0 22 14.59v-7.5A6.25 6.25 0 0 0 15.75.84zm4.375 13.75a4.38 4.38 0 0 1-4.375 4.376h-7.5a4.38 4.38 0 0 1-4.375-4.375v-7.5A4.38 4.38 0 0 1 8.25 2.716h7.5a4.38 4.38 0 0 1 4.375 4.375v7.5z"/><path d="M12 5.84a5 5 0 1 0 0 10.001 5 5 0 0 0 0-10zm0 8.126a3.13 3.13 0 0 1-3.125-3.125A3.129 3.129 0 0 1 12 7.716a3.129 3.129 0 0 1 3.125 3.125A3.13 3.13 0 0 1 12 13.966zm5.375-7.834a.666.666 0 1 0 0-1.332.666.666 0 0 0 0 1.332z"/></g></g></symbol><symbol id="icon-mobile-white"><path d="M10.857 0H1.601C.715 0 0 .718 0 1.603v18.796A1.6 1.6 0 0 0 1.601 22h9.256c.885 0 1.601-.718 1.601-1.601V1.603c0-.885-.716-1.603-1.6-1.603zM3.945.973h4.57c.115 0 .209.173.209.386 0 .213-.094.386-.21.386H3.946c-.116 0-.208-.173-.208-.386 0-.213.092-.386.208-.386zM6.23 20.418a1.022 1.022 0 1 1 0-2.044 1.022 1.022 0 0 1 0 2.044zm5.029-3.502H1.2V2.704h10.06v14.212z" fill="#fff"/></symbol><symbol id="icon-twitter"><path d="M20 1.933c-.736.28-1.526.47-2.356.556.848-.437 1.496-1.129 1.804-1.95a9.128 9.128 0 0 1-2.608.856C16.092.708 15.027.28 13.846.28c-2.266 0-4.103 1.58-4.103 3.527 0 .276.036.546.106.804C6.44 4.464 3.417 3.06 1.393.925A3.135 3.135 0 0 0 .84 2.698c0 1.224.724 2.304 1.824 2.936a4.623 4.623 0 0 1-1.858-.443v.044c0 1.709 1.415 3.135 3.29 3.46a4.76 4.76 0 0 1-1.08.123 4.56 4.56 0 0 1-.773-.065c.522 1.402 2.037 2.422 3.832 2.45C4.67 12.148 2.9 12.71.979 12.71c-.332 0-.658-.017-.979-.048 1.816 1.003 3.972 1.587 6.289 1.587 7.547 0 11.673-5.375 11.673-10.037l-.014-.456A7.67 7.67 0 0 0 20 1.933z"/></symbol><symbol id="icon-vk"><path d="M19.894 9.114a1.12 1.12 0 0 0-.068-.112c-.347-.537-1.01-1.196-1.989-1.978l-.02-.018-.01-.01-.011-.008h-.01c-.445-.364-.726-.61-.844-.734-.216-.24-.264-.48-.146-.726.083-.185.396-.576.937-1.173.285-.316.51-.57.677-.76 1.2-1.375 1.722-2.252 1.562-2.634l-.062-.09c-.042-.053-.15-.102-.323-.147a1.9 1.9 0 0 0-.666-.022l-3 .017a.45.45 0 0 0-.208.005l-.135.027-.052.022-.042.027a.443.443 0 0 0-.114.094.6.6 0 0 0-.104.157 13.826 13.826 0 0 1-1.114 2.014c-.257.37-.493.691-.709.963a4.81 4.81 0 0 1-.541.6 3.64 3.64 0 0 1-.396.309c-.118.077-.208.11-.27.098A8.78 8.78 0 0 1 12.057 5a.64.64 0 0 1-.234-.22.883.883 0 0 1-.12-.348 3.303 3.303 0 0 1-.036-.363 6.436 6.436 0 0 1 .005-.43c.007-.185.01-.31.01-.376 0-.227.006-.473.016-.739l.026-.63c.007-.156.01-.32.01-.493s-.012-.31-.036-.408a1.26 1.26 0 0 0-.109-.286.511.511 0 0 0-.213-.215 1.32 1.32 0 0 0-.35-.121A8.023 8.023 0 0 0 9.623.255C8.33.243 7.502.315 7.133.47a1.392 1.392 0 0 0-.396.268c-.125.132-.142.203-.052.215.417.054.712.182.885.385l.063.108c.049.077.097.214.146.411.048.197.08.415.093.654.035.436.035.809 0 1.12-.034.31-.067.551-.098.724a1.303 1.303 0 0 1-.141.421 1.72 1.72 0 0 1-.125.197.17.17 0 0 1-.052.045.894.894 0 0 1-.281.045c-.098 0-.216-.042-.354-.126a2.399 2.399 0 0 1-.432-.344 4.69 4.69 0 0 1-.506-.614 10.323 10.323 0 0 1-.583-.93l-.166-.26a21.91 21.91 0 0 1-.427-.73c-.18-.32-.34-.629-.48-.927a.609.609 0 0 0-.249-.287L3.926.818a.756.756 0 0 0-.167-.076 1.247 1.247 0 0 0-.24-.058L.668.702c-.292 0-.49.057-.594.17L.031.926A.264.264 0 0 0 0 1.069c0 .066.02.147.063.242.416.842.869 1.653 1.358 2.435.49.782.915 1.412 1.276 1.89.36.477.729.928 1.104 1.352.375.423.623.695.744.814.122.12.217.21.287.269l.26.215c.167.143.411.315.734.515s.68.397 1.073.59c.392.195.848.353 1.37.475.52.123 1.027.172 1.52.148h1.197c.243-.018.427-.084.552-.197l.041-.045a.548.548 0 0 0 .078-.165.789.789 0 0 0 .037-.247 2.548 2.548 0 0 1 .067-.693c.052-.206.111-.361.178-.466a1.17 1.17 0 0 1 .223-.264.887.887 0 0 1 .178-.13.742.742 0 0 1 .083-.031c.166-.048.362-.002.588.139.226.14.438.313.636.519.197.206.435.437.713.694.278.257.52.447.729.573l.208.107c.139.072.32.138.542.197.221.06.416.075.583.045l2.665-.036c.264 0 .469-.037.614-.112.146-.074.233-.156.26-.246a.598.598 0 0 0 .006-.304 1.005 1.005 0 0 0-.073-.238z"/></symbol></svg>